<svg width="290" height="16" viewBox="0 0 290 16" fill="none" xmlns="http://www.w3.org/2000/svg">
<path d="M0.946023 10.071V8.48011L10.3778 3.90625V6.07244L3.41761 9.24716L3.48153 9.11932V9.42472L3.41761 9.30398L10.3778 12.4716V14.6449L0.946023 10.071ZM14.2663 10.071V8.48011L23.6982 3.90625V6.07244L16.7379 9.24716L16.8018 9.11932V9.42472L16.7379 9.30398L23.6982 12.4716V14.6449L14.2663 10.071ZM38.1726 8.70739V7.11648L47.6044 2.54261V4.70881L40.6442 7.88352L40.7081 7.75568V8.06108L40.6442 7.94034L47.6044 11.108V13.2812L38.1726 8.70739ZM67.0504 0.454545V15H64.8487V2.65625H64.7635L61.2834 4.92898V2.8267L64.9126 0.454545H67.0504ZM81.571 15V13.4091L86.4929 8.30966C87.0185 7.75568 87.4517 7.27036 87.7926 6.85369C88.1383 6.43229 88.3963 6.0322 88.5668 5.65341C88.7372 5.27462 88.8224 4.87216 88.8224 4.44602C88.8224 3.96307 88.7088 3.5464 88.4815 3.19602C88.2543 2.84091 87.9441 2.56866 87.5511 2.37926C87.1581 2.18513 86.7154 2.08807 86.223 2.08807C85.7022 2.08807 85.2476 2.1946 84.8594 2.40767C84.4711 2.62074 84.1728 2.9214 83.9645 3.30966C83.7562 3.69792 83.652 4.15246 83.652 4.6733H81.5568C81.5568 3.78788 81.7604 3.01373 82.1676 2.35085C82.5748 1.68797 83.1335 1.17424 83.8438 0.809659C84.554 0.44034 85.3613 0.255681 86.2656 0.255681C87.1795 0.255681 87.9844 0.437973 88.6804 0.802556C89.3812 1.1624 89.928 1.65483 90.321 2.27983C90.714 2.90009 90.9105 3.60085 90.9105 4.3821C90.9105 4.92188 90.8087 5.44981 90.6051 5.96591C90.4063 6.48201 90.0582 7.05729 89.5611 7.69176C89.0639 8.3215 88.3726 9.08617 87.4872 9.9858L84.5966 13.0114V13.1179H91.1449V15H81.571ZM109.487 15.1989C108.511 15.1989 107.64 15.0308 106.873 14.6946C106.111 14.3584 105.507 13.892 105.062 13.2955C104.621 12.6941 104.385 11.9981 104.352 11.2074H106.582C106.61 11.6383 106.754 12.0123 107.015 12.3295C107.28 12.642 107.626 12.8835 108.052 13.054C108.478 13.2244 108.951 13.3097 109.472 13.3097C110.045 13.3097 110.552 13.2102 110.992 13.0114C111.437 12.8125 111.785 12.5355 112.036 12.1804C112.287 11.8205 112.413 11.4062 112.413 10.9375C112.413 10.4498 112.287 10.0213 112.036 9.65199C111.79 9.27794 111.428 8.98437 110.95 8.77131C110.476 8.55824 109.903 8.4517 109.231 8.4517H108.002V6.66193H109.231C109.771 6.66193 110.244 6.56487 110.651 6.37074C111.063 6.17661 111.385 5.90672 111.617 5.56108C111.849 5.2107 111.965 4.80114 111.965 4.33239C111.965 3.88258 111.863 3.49195 111.66 3.16051C111.461 2.82434 111.177 2.56155 110.808 2.37216C110.443 2.18276 110.012 2.08807 109.515 2.08807C109.041 2.08807 108.599 2.17566 108.187 2.35085C107.78 2.52131 107.448 2.76752 107.192 3.08949C106.937 3.40672 106.799 3.78788 106.781 4.23295H104.657C104.681 3.44697 104.913 2.75568 105.353 2.15909C105.798 1.5625 106.385 1.09612 107.114 0.759943C107.844 0.423768 108.653 0.255681 109.543 0.255681C110.476 0.255681 111.281 0.437973 111.958 0.802556C112.64 1.1624 113.165 1.64299 113.535 2.24432C113.909 2.84564 114.094 3.50379 114.089 4.21875C114.094 5.03314 113.866 5.72443 113.407 6.29261C112.952 6.8608 112.346 7.24195 111.589 7.43608V7.54972C112.555 7.6965 113.303 8.08002 113.833 8.70028C114.368 9.32055 114.633 10.09 114.629 11.0085C114.633 11.8087 114.411 12.526 113.961 13.1605C113.516 13.795 112.907 14.2945 112.136 14.6591C111.364 15.0189 110.481 15.1989 109.487 15.1989ZM156.372 15.1989C155.482 15.1989 154.682 15.0284 153.972 14.6875C153.266 14.3419 152.703 13.8684 152.281 13.267C151.86 12.6657 151.635 11.9792 151.607 11.2074H153.737C153.789 11.8324 154.066 12.3461 154.568 12.7486C155.07 13.151 155.671 13.3523 156.372 13.3523C156.931 13.3523 157.426 13.2244 157.857 12.9688C158.292 12.7083 158.633 12.3509 158.879 11.8963C159.13 11.4418 159.256 10.9233 159.256 10.3409C159.256 9.74905 159.128 9.22112 158.872 8.7571C158.616 8.29309 158.264 7.9285 157.814 7.66335C157.369 7.3982 156.857 7.26326 156.28 7.25852C155.839 7.25852 155.397 7.33428 154.952 7.4858C154.507 7.63731 154.147 7.83617 153.872 8.08239L151.862 7.78409L152.679 0.454545H160.676V2.33665H154.504L154.043 6.40625H154.128C154.412 6.13163 154.788 5.90199 155.257 5.71733C155.731 5.53267 156.237 5.44034 156.777 5.44034C157.662 5.44034 158.451 5.65104 159.142 6.07244C159.838 6.49384 160.385 7.06913 160.783 7.7983C161.185 8.52273 161.384 9.35606 161.379 10.2983C161.384 11.2405 161.171 12.081 160.74 12.8196C160.314 13.5582 159.722 14.1406 158.964 14.5668C158.212 14.9882 157.348 15.1989 156.372 15.1989ZM179.637 15.1989C178.989 15.1894 178.35 15.071 177.72 14.8438C177.095 14.6165 176.527 14.2377 176.015 13.7074C175.504 13.1771 175.094 12.4645 174.787 11.5696C174.484 10.6747 174.332 9.55729 174.332 8.21733C174.332 6.94839 174.458 5.8215 174.708 4.83665C174.964 3.8518 175.331 3.02083 175.809 2.34375C176.288 1.66193 176.865 1.14347 177.542 0.788351C178.219 0.433238 178.979 0.255681 179.822 0.255681C180.689 0.255681 181.458 0.426136 182.13 0.767045C182.803 1.10795 183.347 1.57907 183.764 2.1804C184.185 2.78172 184.453 3.46591 184.566 4.23295H182.4C182.253 3.62689 181.962 3.1321 181.527 2.74858C181.091 2.36506 180.523 2.1733 179.822 2.1733C178.757 2.1733 177.926 2.63731 177.329 3.56534C176.737 4.49337 176.439 5.78362 176.434 7.43608H176.541C176.792 7.02415 177.1 6.67377 177.464 6.38494C177.833 6.09138 178.245 5.86648 178.7 5.71023C179.159 5.54924 179.642 5.46875 180.149 5.46875C180.992 5.46875 181.754 5.67472 182.436 6.08665C183.122 6.49384 183.669 7.05729 184.076 7.77699C184.484 8.49669 184.687 9.32055 184.687 10.2486C184.687 11.1766 184.476 12.017 184.055 12.7699C183.638 13.5227 183.051 14.1193 182.294 14.5597C181.536 14.9953 180.651 15.2083 179.637 15.1989ZM179.63 13.3523C180.189 13.3523 180.689 13.215 181.129 12.9403C181.569 12.6657 181.917 12.2964 182.173 11.8324C182.429 11.3684 182.556 10.8499 182.556 10.277C182.556 9.71828 182.431 9.20928 182.18 8.75C181.934 8.29072 181.593 7.92614 181.157 7.65625C180.726 7.38636 180.234 7.25142 179.68 7.25142C179.259 7.25142 178.868 7.33191 178.508 7.4929C178.153 7.65388 177.841 7.87642 177.571 8.16051C177.301 8.4446 177.088 8.77131 176.931 9.14062C176.78 9.50521 176.704 9.8911 176.704 10.2983C176.704 10.8428 176.83 11.3471 177.081 11.8111C177.336 12.2751 177.684 12.6491 178.125 12.9332C178.57 13.2126 179.072 13.3523 179.63 13.3523ZM198.35 15L204.7 2.44318V2.33665H197.356V0.454545H206.972V2.40057L200.644 15H198.35ZM216.163 15.1349C215.774 15.1349 215.441 14.9976 215.161 14.723C214.882 14.4437 214.742 14.1075 214.742 13.7145C214.742 13.3262 214.882 12.9948 215.161 12.7202C215.441 12.4408 215.774 12.3011 216.163 12.3011C216.551 12.3011 216.885 12.4408 217.164 12.7202C217.443 12.9948 217.583 13.3262 217.583 13.7145C217.583 13.9749 217.517 14.214 217.384 14.4318C217.256 14.6449 217.086 14.8153 216.873 14.9432C216.66 15.071 216.423 15.1349 216.163 15.1349ZM221.827 15.1349C221.438 15.1349 221.105 14.9976 220.825 14.723C220.546 14.4437 220.406 14.1075 220.406 13.7145C220.406 13.3262 220.546 12.9948 220.825 12.7202C221.105 12.4408 221.438 12.3011 221.827 12.3011C222.215 12.3011 222.549 12.4408 222.828 12.7202C223.107 12.9948 223.247 13.3262 223.247 13.7145C223.247 13.9749 223.181 14.214 223.048 14.4318C222.92 14.6449 222.75 14.8153 222.537 14.9432C222.324 15.071 222.087 15.1349 221.827 15.1349ZM227.491 15.1349C227.103 15.1349 226.769 14.9976 226.489 14.723C226.21 14.4437 226.07 14.1075 226.07 13.7145C226.07 13.3262 226.21 12.9948 226.489 12.7202C226.769 12.4408 227.103 12.3011 227.491 12.3011C227.879 12.3011 228.213 12.4408 228.492 12.7202C228.772 12.9948 228.911 13.3262 228.911 13.7145C228.911 13.9749 228.845 14.214 228.712 14.4318C228.585 14.6449 228.414 14.8153 228.201 14.9432C227.988 15.071 227.751 15.1349 227.491 15.1349ZM246.765 10.071L237.333 14.6449V12.4716L244.293 9.30398L244.222 9.42472V9.11932L244.293 9.24716L237.333 6.07244V3.90625L246.765 8.48011V10.071ZM275.964 10.071L266.532 14.6449V12.4716L273.492 9.30398L273.421 9.42472V9.11932L273.492 9.24716L266.532 6.07244V3.90625L275.964 8.48011V10.071ZM289.284 10.071L279.852 14.6449V12.4716L286.812 9.30398L286.741 9.42472V9.11932L286.812 9.24716L279.852 6.07244V3.90625L289.284 8.48011V10.071Z" fill="#ACACAC"/>
<path d="M127.594 12.1591V10.3835L133.879 0.454545H135.278V3.06818H134.391L129.895 10.1847V10.2983H138.51V12.1591H127.594ZM134.49 15V11.6193L134.504 10.8097V0.454545H136.585V15H134.49Z" fill="black"/>
</svg>
